# xmcd
#
# Track frame offsets:
#	150
#	27217
#	59181
#	81958
#	108105
#	145747
#	172187
#	193164
#	215268
#
# Disc length: 3172 seconds
#
# Revision: 1
# Processed by: cddbd v1.5.2PL0 Copyright (c) Steve Scherf et al.
# Submitted via: audiograbber 1.83.01
#
DISCID=820c6209
DTITLE=Barry White - The Icon Is Love
DYEAR=1994
DGENRE=Soul
TTITLE0=Practice What You Preach
TTITLE1=There It Is
TTITLE2=Only Want To Be Yith You
TTITLE3=The Time Is Right
TTITLE4=Baby's Home
TTITLE5=Come On
TTITLE6=Love Is The Icon
TTITLE7=Sexy Undercover
TTITLE8=Don't You Want To Know ?
EXTD=
EXTT0=
EXTT1=
EXTT2=
EXTT3=
EXTT4=
EXTT5=
EXTT6=
EXTT7=
EXTT8=
PLAYORDER=
